# xmcd CD Database Entry
#
# Track frame offsets:
# 150
# 21135
# 25590
# 46018
# 58470
# 76623
# 97521
# 116656
# 122328
# 137848
# 147442
# 160738
# 208806
#
# Disc length: 3264 seconds
#
# Revision: 1
# Processed by: cddbd v1.4PL0 Copyright (c) Steve Scherf et al.
# Submitted via: tcd 2.0b
#
DISCID=a00cbe0d
DTITLE=Ragadoll - The Psychotic Dance Hall Call
DYEAR=1900
DGENRE=
TTITLE0=Harmonica-Leigh
TTITLE1=The Jaded Faded Busted Up Blues
TTITLE2=Dance With The Devil
TTITLE3=Illywhacker
TTITLE4=The Fools Song
TTITLE5=The Psychotic Dance Hall Call
TTITLE6=This Old House Is Full Of Spooks
TTITLE7=All The Pretty Little Horses
TTITLE8=Unstoppable Beat
TTITLE9=Animal With An Appetite
TTITLE10=Lonesome Sweet
TTITLE11=The Von Tramp Family Puppets
TTITLE12=Ladies And Gentlemen
EXTD=
EXTT0=
EXTT1=
EXTT2=
EXTT3=
EXTT4=
EXTT5=
EXTT6=
EXTT7=
EXTT8=
EXTT9=
EXTT10=
EXTT11=
EXTT12=
PLAYORDER=
